HIERARCHY
ROOT hip
{
  OFFSET 0 0 0
  CHANNELS 6 Xposition Yposition Zposition Zrotation Yrotation Xrotation
  JOINT abdomen
  {
    OFFSET 0 20.6881 -0.73152
    CHANNELS 3 Zrotation Xrotation Yrotation
    JOINT chest
    {
      OFFSET 0 11.7043 -0.48768
      CHANNELS 3 Zrotation Xrotation Yrotation
      JOINT neck
      {
        OFFSET 0 22.1894 -2.19456
        CHANNELS 3 Zrotation Xrotation Yrotation
        JOINT head
        {
          OFFSET -0.24384 7.07133 1.2192
          CHANNELS 3 Zrotation Xrotation Yrotation
          JOINT leftEye
          {
            OFFSET 4.14528 8.04674 8.04672
            CHANNELS 3 Zrotation Xrotation Yrotation
            End Site
            {
              OFFSET 1 0 0
            }
          }
          JOINT rightEye
          {
            OFFSET -3.6576 8.04674 8.04672
            CHANNELS 3 Zrotation Xrotation Yrotation
            End Site
            {
              OFFSET 1 0 0
            }
          }
        }
      }
      JOINT rCollar
      {
        OFFSET -2.68224 19.2634 -4.8768
        CHANNELS 3 Zrotation Xrotation Yrotation
        JOINT rShldr
        {
          OFFSET -8.77824 -1.95073 1.46304
          CHANNELS 3 Zrotation Xrotation Yrotation
          JOINT rForeArm
          {
            OFFSET -28.1742 -1.7115 0.48768
            CHANNELS 3 Zrotation Xrotation Yrotation
            JOINT rHand
            {
              OFFSET -22.5879 0.773209 7.07136
              CHANNELS 3 Zrotation Xrotation Yrotation
              JOINT rThumb1
              {
                OFFSET -1.2192 -0.487915 3.41376
                CHANNELS 3 Zrotation Xrotation Yrotation
                JOINT rThumb2
                {
                  OFFSET -3.37035 -0.52449 3.41376
                  CHANNELS 3 Zrotation Xrotation Yrotation
                  End Site
                  {
                    OFFSET -1.78271 -1.18214 1.43049
                  }
                }
              }
              JOINT rIndex1
              {
                OFFSET -7.75947 0.938293 5.60832
                CHANNELS 3 Zrotation Xrotation Yrotation
                JOINT rIndex2
                {
                  OFFSET -2.54057 -0.884171 1.56538
                  CHANNELS 3 Zrotation Xrotation Yrotation
                  End Site
                  {
                    OFFSET -1.62519 -0.234802 1.16502
                  }
                }
              }
              JOINT rMid1
              {
                OFFSET -8.24714 1.18213 3.41376
                CHANNELS 3 Zrotation Xrotation Yrotation
                JOINT rMid2
                {
                  OFFSET -3.10165 -0.590103 1.0647
                  CHANNELS 3 Zrotation Xrotation Yrotation
                  End Site
                  {
                    OFFSET -2.48547 -0.328903 0.83742
                  }
                }
              }
              JOINT rRing1
              {
                OFFSET -8.82822 0.546677 1.51678
                CHANNELS 3 Zrotation Xrotation Yrotation
                JOINT rRing2
                {
                  OFFSET -2.60934 -0.819778 -0.0198488
                  CHANNELS 3 Zrotation Xrotation Yrotation
                  End Site
                  {
                    OFFSET -2.33842 -0.294052 0.168128
                  }
                }
              }
              JOINT rPinky1
              {
                OFFSET -8.27202 -0.0477905 -0.4584
                CHANNELS 3 Zrotation Xrotation Yrotation
                JOINT rPinky2
                {
                  OFFSET -1.82734 -0.647385 -0.700984
                  CHANNELS 3 Zrotation Xrotation Yrotation
                  End Site
                  {
                    OFFSET -1.69225 -0.51767 -0.607171
                  }
                }
              }
            }
          }
        }
      }
      JOINT lCollar
      {
        OFFSET 2.68224 19.2634 -4.8768
        CHANNELS 3 Zrotation Xrotation Yrotation
        JOINT lShldr
        {
          OFFSET 8.77824 -1.95073 1.46304
          CHANNELS 3 Zrotation Xrotation Yrotation
          JOINT lForeArm
          {
            OFFSET 28.1742 -1.7115 0.48768
            CHANNELS 3 Zrotation Xrotation Yrotation
            JOINT lHand
            {
              OFFSET 22.5879 0.773209 7.07136
              CHANNELS 3 Zrotation Xrotation Yrotation
              JOINT lThumb1
              {
                OFFSET 1.2192 -0.487915 3.41376
                CHANNELS 3 Zrotation Xrotation Yrotation
                JOINT lThumb2
                {
                  OFFSET 3.37035 -0.52449 3.41376
                  CHANNELS 3 Zrotation Xrotation Yrotation
                  End Site
                  {
                    OFFSET 1.78271 -1.18214 1.43049
                  }
                }
              }
              JOINT lIndex1
              {
                OFFSET 7.75947 0.938293 5.60832
                CHANNELS 3 Zrotation Xrotation Yrotation
                JOINT lIndex2
                {
                  OFFSET 2.54057 -0.884171 1.56538
                  CHANNELS 3 Zrotation Xrotation Yrotation
                  End Site
                  {
                    OFFSET 1.62519 -0.234802 1.16502
                  }
                }
              }
              JOINT lMid1
              {
                OFFSET 8.24714 1.18213 3.41376
                CHANNELS 3 Zrotation Xrotation Yrotation
                JOINT lMid2
                {
                  OFFSET 3.10165 -0.590103 1.0647
                  CHANNELS 3 Zrotation Xrotation Yrotation
                  End Site
                  {
                    OFFSET 2.48547 -0.328903 0.83742
                  }
                }
              }
              JOINT lRing1
              {
                OFFSET 8.82822 0.546677 1.51678
                CHANNELS 3 Zrotation Xrotation Yrotation
                JOINT lRing2
                {
                  OFFSET 2.60934 -0.819778 -0.0198488
                  CHANNELS 3 Zrotation Xrotation Yrotation
                  End Site
                  {
                    OFFSET 2.33842 -0.294052 0.168128
                  }
                }
              }
              JOINT lPinky1
              {
                OFFSET 8.27202 -0.0477905 -0.4584
                CHANNELS 3 Zrotation Xrotation Yrotation
                JOINT lPinky2
                {
                  OFFSET 1.82734 -0.647385 -0.700984
                  CHANNELS 3 Zrotation Xrotation Yrotation
                  End Site
                  {
                    OFFSET 1.69225 -0.51767 -0.607171
                  }
                }
              }
            }
          }
        }
      }
    }
  }
  JOINT rButtock
  {
    OFFSET -8.77824 4.35084 1.2192
    CHANNELS 3 Zrotation Xrotation Yrotation
    JOINT rThigh
    {
      OFFSET 0 -1.70687 -2.19456
      CHANNELS 3 Zrotation Xrotation Yrotation
      JOINT rShin
      {
        OFFSET 0 -36.8199 0.73152
        CHANNELS 3 Zrotation Xrotation Yrotation
        JOINT rFoot
        {
          OFFSET 0.73152 -45.1104 -5.12064
          CHANNELS 3 Zrotation Xrotation Yrotation
          End Site
          {
            OFFSET -1.1221 -3.69964 12.103
          }
        }
      }
    }
  }
  JOINT lButtock
  {
    OFFSET 8.77824 4.35084 1.2192
    CHANNELS 3 Zrotation Xrotation Yrotation
    JOINT lThigh
    {
      OFFSET 0 -1.70687 -2.19456
      CHANNELS 3 Zrotation Xrotation Yrotation
      JOINT lShin
      {
        OFFSET 0 -36.8199 0.73152
        CHANNELS 3 Zrotation Xrotation Yrotation
        JOINT lFoot
        {
          OFFSET -0.73152 -45.1104 -5.12064
          CHANNELS 3 Zrotation Xrotation Yrotation
          End Site
          {
            OFFSET 1.1221 -3.69964 12.103
          }
        }
      }
    }
  }
}
MOTION
Frames:	7
Frame Time:	0.00833333
-1.55639 82.4855 48.9915 0.0 0.0 0.0 -4.35903 0.00629525 -0.117464 -1.20167 0.0324819 -0.207696 7.42047e-14 7.95139e-16 4.96962e-16 2.22515e-13 3.18055e-15 1.34024e-15 -0.0 0.0 0.0 -0.0 0.0 0.0 3.68256e-14 1.46371e-16 2.98177e-16 7.83744e-13 4.05645e-15 8.15017e-15 1.34195e-11 -3.91347e-12 -4.13472e-14 1.54031e-10 4.72399e-12 1.23406e-12 3.63254e-10 1.7525e-12 2.58579e-12 6.27321e-10 3.02471e-12 4.44085e-12 3.63259e-10 1.75447e-12 2.57625e-12 7.73091 5.47488 0.417314 3.63255e-10 1.75288e-12 2.58261e-12 2.90554 0.965183 0.102902 3.6326e-10 1.75249e-12 2.58022e-12 10.2786 0.731801 0.0259123 3.63249e-10 1.75368e-12 2.57943e-12 2.22167 -0.733487 -0.20892 3.66277e-14 1.50253e-16 0.0 7.82344e-13 3.66509e-15 6.36111e-15 1.34978e-11 4.14387e-12 -6.36111e-15 1.54011e-10 -3.3523e-12 1.21179e-12 3.63362e-10 1.71566e-12 2.55717e-12 6.2751e-10 2.96428e-12 4.42574e-12 3.63355e-10 1.7179e-12 2.57307e-12 -7.73091 5.47488 -0.417314 3.63361e-10 1.71591e-12 2.56035e-12 -2.90554 0.965183 -0.102902 3.63349e-10 1.71611e-12 2.5675e-12 -10.2786 0.731801 -0.0259123 3.63364e-10 1.7179e-12 2.56989e-12 -2.22167 -0.733487 0.20892 -2.03217e-16 0.0 -3.88251e-19 -2.89144 -1.94436 0.0304696 -0.00794952 -2.07875 -0.0648885 -0.419016 4.00219 0.126637 2.03217e-16 0.0 3.88251e-19 -3.72536 -11.2507 0.483797 -0.0143129 14.7726 -0.388795 0.544808 -3.54244 0.0125121
-3.62581 82.3419 47.4935 -8.5704 -1.6304 6.0502 -4.50216 0.200857 -0.0911786 -1.19388 0.228372 -0.213422 0.281782 4.37008 0.306507 -0.373935 -9.28702 0.593783 -0.0 0.0 0.0 -0.0 0.0 0.0 1.77597e-13 -2.95516e-14 2.20643e-15 -4.34264 0.0910682 0.303232 0.356144 0.150316 -0.533014 -0.0463892 -0.941213 -0.121396 2.31343e-09 -5.42469e-10 -2.09494e-12 3.99673e-09 -9.37342e-10 -2.9534e-12 2.31343e-09 -5.42467e-10 -2.10433e-12 7.73091 5.47488 0.417314 2.31343e-09 -5.42469e-10 -2.0971e-12 2.90554 0.965183 0.102902 2.31344e-09 -5.42469e-10 -2.10064e-12 10.2786 0.731801 0.0259123 2.31343e-09 -5.42468e-10 -2.09797e-12 2.22167 -0.733487 -0.20892 1.77421e-13 -2.95454e-14 1.89001e-15 4.37606 0.23704 -0.334987 -0.332296 0.136928 0.503259 0.016555 -0.554048 0.0755995 2.32142e-09 -4.27489e-10 1.30924e-10 4.00965e-09 -7.39378e-10 2.26524e-10 2.32142e-09 -4.27488e-10 1.30938e-10 -7.73091 5.47488 -0.417314 2.32142e-09 -4.27489e-10 1.30926e-10 -2.90554 0.965183 -0.102902 2.32141e-09 -4.27489e-10 1.30932e-10 -10.2786 0.731801 -0.0259123 2.32143e-09 -4.27487e-10 1.30932e-10 -2.22167 -0.733487 0.20892 -2.03217e-16 0.0 -3.88251e-19 -0.721177 -1.51355 6.81485 0.00134352 -1.91865 0.00692072 -0.844342 1.31737 -6.61124 2.03217e-16 0.0 3.88251e-19 -4.11739 -8.64468 -10.6763 -0.0158854 13.8924 -0.326473 1.18176 -7.92151 13.0568
-3.63204 82.3417 47.4913 -8.5953 -1.6446 6.0648 -4.75429 0.539056 -0.0861962 -1.17383 0.574643 -0.221566 0.684814 8.98614 0.825103 -0.701463 -19.4258 1.65702 -0.0 0.0 0.0 -0.0 0.0 0.0 3.34562e-13 -6.32526e-14 3.18366e-15 -10.2492 0.242828 0.808625 0.955931 0.400736 -1.4214 -0.132575 -2.50987 -0.323991 4.46213e-09 -1.13426e-09 -8.38434e-12 7.70911e-09 -1.95989e-09 -1.26532e-11 4.46213e-09 -1.13426e-09 -8.39348e-12 7.73091 5.47488 0.417314 4.46213e-09 -1.13426e-09 -8.38533e-12 2.90554 0.965183 0.102902 4.46214e-09 -1.13426e-09 -8.39025e-12 10.2786 0.731801 0.0259123 4.46213e-09 -1.13426e-09 -8.38394e-12 2.22167 -0.733487 -0.20892 3.34408e-13 -6.32437e-14 2.84511e-15 10.3423 0.632042 -0.893346 -0.891467 0.365056 1.34205 0.0473966 -1.47745 0.201656 4.48183e-09 -9.08028e-10 2.45549e-10 7.74077e-09 -1.57089e-09 4.25079e-10 4.48182e-09 -9.08028e-10 2.45559e-10 -7.73091 5.47488 -0.417314 4.48183e-09 -9.08028e-10 2.45548e-10 -2.90554 0.965183 -0.102902 4.48182e-09 -9.08027e-10 2.45553e-10 -10.2786 0.731801 -0.0259123 4.48183e-09 -9.08025e-10 2.45551e-10 -2.22167 -0.733487 0.20892 -2.03217e-16 0.0 -3.88251e-19 1.47618 -1.04314 13.9788 0.0106235 -1.74636 0.0815869 -1.97378 -1.45854 -13.7271 2.03217e-16 0.0 3.88251e-19 -3.43208 -5.72816 -22.3237 -0.0155709 12.9607 -0.262562 3.97723 -11.5826 27.1796
-3.63161 82.3428 47.4923 -8.5949 -1.6448 6.06 -4.78896 0.58998 -0.0386076 -1.17817 0.620152 -0.224883 0.70189 13.1087 0.94138 -0.480175 -27.8483 1.98835 -0.0 0.0 0.0 -0.0 0.0 0.0 4.59139e-13 -8.89474e-14 6.02294e-15 -13.0308 0.273174 0.909705 1.07682 0.450791 -1.59909 -0.151145 -2.82359 -0.364582 6.21378e-09 -1.63091e-09 -1.14564e-11 1.07356e-08 -2.81808e-09 -1.77419e-11 6.21378e-09 -1.63091e-09 -1.14655e-11 7.73091 5.47488 0.417314 6.21378e-09 -1.63091e-09 -1.14565e-11 2.90554 0.965183 0.102902 6.21379e-09 -1.63091e-09 -1.14624e-11 10.2786 0.731801 0.0259123 6.21378e-09 -1.63091e-09 -1.14528e-11 2.22167 -0.733487 -0.20892 4.59008e-13 -8.89367e-14 5.67002e-15 13.1365 0.711024 -1.00503 -1.0041 0.410658 1.50981 0.0540528 -1.66213 0.226883 6.23754e-09 -1.2859e-09 3.87659e-10 1.07739e-08 -2.22406e-09 6.7072e-10 6.23754e-09 -1.2859e-09 3.87667e-10 -7.73091 5.47488 -0.417314 6.23754e-09 -1.2859e-09 3.87656e-10 -2.90554 0.965183 -0.102902 6.23753e-09 -1.2859e-09 3.87661e-10 -10.2786 0.731801 -0.0259123 6.23755e-09 -1.2859e-09 3.87656e-10 -2.22167 -0.733487 0.20892 -2.03217e-16 0.0 -3.88251e-19 3.31709 -0.641397 20.3778 0.0187253 -1.59846 0.150501 -3.55497 -3.78074 -20.1268 2.03217e-16 0.0 3.88251e-19 -1.93744 -3.26898 -32.6697 -0.0131624 12.1319 -0.203425 8.00187 -13.4087 40.0666
-3.63054 82.3408 47.4884 -8.5887 -1.644 6.0781 -4.27754 -0.0772877 0.115485 -1.24353 -0.0862426 -0.216133 8.41451e-13 16.0 1.67442e-14 -2.52294e-10 -32.0 -3.7109e-10 -0.0 0.0 0.0 -0.0 0.0 0.0 5.02746e-13 -9.46265e-14 1.35174e-14 -8.0 4.72161e-09 2.60833e-10 2.31253e-10 -2.20191e-10 -1.81292e-13 2.97583e-09 -6.48458e-10 -2.70347e-12 6.97282e-09 -1.88973e-09 -6.48515e-12 1.20472e-08 -3.26533e-09 -1.13029e-11 6.97282e-09 -1.88972e-09 -6.49469e-12 7.73091 5.47488 0.417314 6.97282e-09 -1.88973e-09 -6.48515e-12 2.90554 0.965183 0.102902 6.97283e-09 -1.88973e-09 -6.49072e-12 10.2786 0.731801 0.0259123 6.97281e-09 -1.88973e-09 -6.47879e-12 2.22167 -0.733487 -0.20892 5.02641e-13 -9.46168e-14 1.31695e-14 8.0 4.72161e-09 -2.60833e-10 2.78433e-10 -3.0162e-11 1.88034e-11 2.93271e-09 -6.16634e-10 2.56394e-10 6.98151e-09 -1.4071e-09 5.98485e-10 1.20622e-08 -2.43137e-09 1.03408e-09 6.98151e-09 -1.4071e-09 5.98491e-10 -7.73091 5.47488 -0.417314 6.98151e-09 -1.4071e-09 5.98482e-10 -2.90554 0.965183 -0.102902 6.9815e-09 -1.4071e-09 5.98485e-10 -10.2786 0.731801 -0.0259123 6.98152e-09 -1.4071e-09 5.98479e-10 -2.22167 -0.733487 0.20892 -2.03217e-16 0.0 -3.88251e-19 4.48558 -0.399159 24.8677 0.0247375 -1.51153 0.205059 -4.96915 -5.26706 -24.664 2.03217e-16 0.0 3.88251e-19 -0.50809 -1.78063 -39.9141 -0.00944182 11.5606 -0.155182 11.4068 -13.638 49.1081
-3.5957 82.3266 47.4885 -8.424 -1.6306 6.2241 -2.81658 -1.96478 0.436765 -1.39798 -2.07641 -0.191776 -1.84536 17.1408 -2.7647 1.19432 -29.4494 -5.8198 -0.0 0.0 0.0 -0.0 0.0 0.0 4.23135e-13 -6.43999e-14 2.78679e-14 10.0541 -0.762882 -2.63167 -2.97133 -1.29968 4.62307 0.233588 8.14892 1.06195 6.23202e-09 -1.79527e-09 -2.59617e-11 1.07665e-08 -3.10066e-09 -5.20191e-11 6.23202e-09 -1.79527e-09 -2.59726e-11 7.73091 5.47488 0.417314 6.23201e-09 -1.79527e-09 -2.59629e-11 2.90554 0.965183 0.102902 6.23203e-09 -1.79527e-09 -2.5966e-11 10.2786 0.731801 0.0259123 6.23201e-09 -1.79527e-09 -2.59529e-11 2.22167 -0.733487 -0.20892 4.23064e-13 -6.43965e-14 2.75569e-14 -10.3078 -2.07265 2.91675 2.78061 -1.18428 -4.36441 -0.0820071 4.79853 -0.657096 6.15655e-09 -1.09979e-09 9.88605e-10 1.0646e-08 -1.89351e-09 1.70557e-09 6.15654e-09 -1.09979e-09 9.8861e-10 -7.73091 5.47488 -0.417314 6.15655e-09 -1.09979e-09 9.88603e-10 -2.90554 0.965183 -0.102902 6.15654e-09 -1.09979e-09 9.88605e-10 -10.2786 0.731801 -0.0259123 6.15656e-09 -1.09979e-09 9.88597e-10 -2.22167 -0.733487 0.20892 -2.03217e-16 0.0 -3.88251e-19 4.78632 -0.364568 26.6929 0.0284047 -1.51481 0.241537 -5.60433 -5.82074 -26.5429 2.03217e-16 0.0 3.88251e-19 -0.028753 -1.33432 -42.8232 -0.00529919 11.3518 -0.119336 12.8536 -13.4799 52.6745
-3.54449 82.3017 47.508 -8.0654 -1.5914 6.4475 -0.653797 -4.71323 0.878893 -1.6131 -4.97256 -0.156456 -4.55986 16.9703 -6.79886 4.8921 -21.9342 -13.4572 -0.0 0.0 0.0 -0.0 0.0 0.0 2.55981e-13 -8.90166e-15 4.70995e-14 37.1957 -1.86262 -6.48153 -6.93928 -3.14673 11.3948 0.000955949 20.0395 2.75436 4.42515e-09 -1.44944e-09 -6.12004e-11 7.64321e-09 -2.50064e-09 -1.23403e-10 4.42515e-09 -1.44945e-09 -6.12136e-11 7.73091 5.47488 0.417314 4.42515e-09 -1.44945e-09 -6.1204e-11 2.90554 0.965183 0.102902 4.42516e-09 -1.44945e-09 -6.12031e-11 10.2786 0.731801 0.0259123 4.42514e-09 -1.44945e-09 -6.11895e-11 2.22167 -0.733487 -0.20892 2.55949e-13 -8.90824e-15 4.6848e-14 -37.5737 -5.07265 7.20575 6.52197 -2.87256 -10.7549 -0.000132123 11.8072 -1.64657 4.21819e-09 -4.89691e-10 1.50284e-09 7.31048e-09 -8.29139e-10 2.59034e-09 4.21818e-09 -4.89694e-10 1.50284e-09 -7.73091 5.47488 -0.417314 4.21819e-09 -4.8969e-10 1.50284e-09 -2.90554 0.965183 -0.102902 4.21818e-09 -4.89691e-10 1.50284e-09 -10.2786 0.731801 -0.0259123 4.2182e-09 -4.8969e-10 1.50283e-09 -2.22167 -0.733487 0.20892 -2.03217e-16 0.0 -3.88251e-19 4.48622 -0.471616 26.6144 0.0305156 -1.58229 0.26501 -5.5598 -5.7803 -26.5042 2.03217e-16 0.0 3.88251e-19 -0.395391 -1.52504 -42.6284 -0.00140597 11.4019 -0.0923458 12.7573 -13.5339 52.3751
